<svg width="30" height="30" viewBox="0 0 30 30" fill="none" xmlns="http://www.w3.org/2000/svg">
<path fill-rule="evenodd" clip-rule="evenodd" d="M15 28.125C18.481 28.125 21.8194 26.7422 24.2808 24.2808C26.7422 21.8194 28.125 18.481 28.125 15C28.125 11.519 26.7422 8.18064 24.2808 5.71922C21.8194 3.25781 18.481 1.875 15 1.875C11.519 1.875 8.18064 3.25781 5.71922 5.71922C3.25781 8.18064 1.875 11.519 1.875 15C1.875 18.481 3.25781 21.8194 5.71922 24.2808C8.18064 26.7422 11.519 28.125 15 28.125V28.125ZM15 30C18.9782 30 22.7936 28.4196 25.6066 25.6066C28.4196 22.7936 30 18.9782 30 15C30 11.0218 28.4196 7.20644 25.6066 4.3934C22.7936 1.58035 18.9782 0 15 0C11.0218 0 7.20644 1.58035 4.3934 4.3934C1.58035 7.20644 0 11.0218 0 15C0 18.9782 1.58035 22.7936 4.3934 25.6066C7.20644 28.4196 11.0218 30 15 30V30Z" fill="#348AD1"/>
<path fill-rule="evenodd" clip-rule="evenodd" d="M22.2263 7.77375C22.3136 7.86083 22.3828 7.96429 22.4301 8.07818C22.4774 8.19208 22.5017 8.31418 22.5017 8.4375C22.5017 8.56081 22.4774 8.68291 22.4301 8.79681C22.3828 8.91071 22.3136 9.01416 22.2263 9.10125L9.10127 22.2262C8.92524 22.4023 8.68648 22.5012 8.43752 22.5012C8.18857 22.5012 7.94981 22.4023 7.77377 22.2262C7.59774 22.0502 7.49884 21.8115 7.49884 21.5625C7.49884 21.3135 7.59774 21.0748 7.77377 20.8987L20.8988 7.77375C20.9859 7.68644 21.0893 7.61717 21.2032 7.56991C21.3171 7.52265 21.4392 7.49832 21.5625 7.49832C21.6858 7.49832 21.8079 7.52265 21.9218 7.56991C22.0357 7.61717 22.1392 7.68644 22.2263 7.77375V7.77375Z" fill="#348AD1"/>
<path fill-rule="evenodd" clip-rule="evenodd" d="M7.77378 7.77375C7.68647 7.86083 7.6172 7.96429 7.56994 8.07818C7.52268 8.19208 7.49835 8.31418 7.49835 8.4375C7.49835 8.56081 7.52268 8.68291 7.56994 8.79681C7.6172 8.91071 7.68647 9.01416 7.77378 9.10125L20.8988 22.2262C21.0748 22.4023 21.3136 22.5012 21.5625 22.5012C21.8115 22.5012 22.0502 22.4023 22.2263 22.2262C22.4023 22.0502 22.5012 21.8115 22.5012 21.5625C22.5012 21.3135 22.4023 21.0748 22.2263 20.8987L9.10128 7.77375C9.01419 7.68644 8.91074 7.61717 8.79684 7.56991C8.68294 7.52265 8.56084 7.49832 8.43753 7.49832C8.31421 7.49832 8.19211 7.52265 8.07821 7.56991C7.96432 7.61717 7.86086 7.68644 7.77378 7.77375V7.77375Z" fill="#348AD1"/>
</svg>
