<svg width="89" height="89" viewBox="0 0 89 89" fill="none" xmlns="http://www.w3.org/2000/svg">
<g filter="url(#filter0_d)">
<path d="M59.2778 49.217C59.2778 52.5984 60.2399 53.9469 62.7558 53.9469C68.3633 53.9469 71.934 46.8017 71.934 34.9184C71.934 16.7554 58.6981 8.06032 42.1735 8.06032C25.1738 8.06032 9.71187 19.4605 9.71187 41.005C9.71187 61.5833 23.2375 72.7903 44.0091 72.7903C51.0618 72.7903 55.7957 72.0174 63.0376 69.6021L64.5915 76.0711C57.4422 78.3938 49.8018 79.066 43.9125 79.066C16.6679 79.066 2.0755 64.0912 2.0755 41.0009C2.0755 17.7175 18.9866 1.87314 42.2701 1.87314C66.5197 1.87314 79.365 16.3649 79.365 34.1415C79.365 49.213 74.6351 60.7098 59.7568 60.7098C52.99 60.7098 48.5499 58.0046 47.9702 52.0107C46.2312 58.6769 41.5938 60.7098 35.31 60.7098C26.9048 60.7098 19.8521 54.2327 19.8521 41.1942C19.8521 28.055 26.0393 19.9396 37.1496 19.9396C43.043 19.9396 46.7142 22.2582 48.3486 25.9295L51.1544 20.8091H59.2697V49.217H59.2778ZM47.3986 36.4642C47.3986 31.1546 43.4334 28.9285 40.1486 28.9285C36.574 28.9285 32.6169 31.8228 32.6169 40.3287C32.6169 47.0915 35.6119 50.8594 40.1486 50.8594C43.3368 50.8594 47.3986 48.8305 47.3986 43.227V36.4642Z" fill="#86E7B8"/>
</g>
<defs>
<filter id="filter0_d" x="0.473328" y="0.218475" width="89.5099" height="89.5099" filterUnits="userSpaceOnUse" color-interpolation-filters="sRGB">
<feFlood flood-opacity="0" result="BackgroundImageFix"/>
<feColorMatrix in="SourceAlpha" type="matrix" values="0 0 0 0 0 0 0 0 0 0 0 0 0 0 0 0 0 0 127 0"/>
<feOffset dx="5" dy="5"/>
<feGaussianBlur stdDeviation="2"/>
<feColorMatrix type="matrix" values="0 0 0 0 0 0 0 0 0 0 0 0 0 0 0 0 0 0 0.3 0"/>
<feBlend mode="normal" in2="BackgroundImageFix" result="effect1_dropShadow"/>
<feBlend mode="normal" in="SourceGraphic" in2="effect1_dropShadow" result="shape"/>
</filter>
</defs>
</svg>
