<svg width="89" height="89" viewBox="0 0 89 89" fill="none" xmlns="http://www.w3.org/2000/svg">
<g filter="url(#filter0_d)">
<path d="M52.6198 40.9774C52.6198 44.1803 51.3475 47.252 49.0827 49.5168C46.8179 51.7816 43.7462 53.0539 40.5433 53.0539C37.3404 53.0539 34.2687 51.7816 32.0039 49.5168C29.7392 47.252 28.4668 44.1803 28.4668 40.9774C28.4668 40.2891 28.5393 39.6168 28.6641 38.9647H24.4413V55.0546C24.4413 56.1737 25.347 57.0794 26.4661 57.0794H54.6245C55.1608 57.0783 55.6748 56.8645 56.0537 56.4849C56.4325 56.1053 56.6453 55.5909 56.6453 55.0546V38.9647H52.4226C52.5473 39.6168 52.6198 40.2891 52.6198 40.9774ZM40.5433 49.0284C41.6008 49.0282 42.648 48.8196 43.6249 48.4147C44.6018 48.0097 45.4894 47.4163 46.2371 46.6683C46.9847 45.9203 47.5776 45.0324 47.9821 44.0553C48.3865 43.0782 48.5946 42.0309 48.5943 40.9734C48.594 39.9159 48.3855 38.8687 47.9805 37.8918C47.5756 36.9149 46.9822 36.0273 46.2342 35.2797C45.4862 34.5321 44.5983 33.9391 43.6212 33.5346C42.644 33.1302 41.5968 32.9221 40.5393 32.9224C38.4035 32.9229 36.3554 33.7719 34.8455 35.2825C33.3357 36.7931 32.4878 38.8416 32.4883 40.9774C32.4888 43.1132 33.3378 45.1613 34.8484 46.6712C36.359 48.181 38.4075 49.029 40.5433 49.0284ZM50.2045 32.5239H55.0311C55.3517 32.5239 55.6593 32.3968 55.8864 32.1704C56.1136 31.9441 56.2417 31.6369 56.2427 31.3162V26.4897C56.2427 26.1683 56.1151 25.8601 55.8879 25.6329C55.6606 25.4057 55.3524 25.278 55.0311 25.278H50.2045C49.8831 25.278 49.5749 25.4057 49.3477 25.6329C49.1205 25.8601 48.9928 26.1683 48.9928 26.4897V31.3162C48.9968 31.9804 49.5403 32.5239 50.2045 32.5239ZM40.5433 2.33267C30.2941 2.33267 20.4646 6.40416 13.2173 13.6515C5.97002 20.8988 1.89853 30.7282 1.89853 40.9774C1.89853 51.2267 5.97002 61.0561 13.2173 68.3034C20.4646 75.5507 30.2941 79.6222 40.5433 79.6222C45.6182 79.6222 50.6434 78.6226 55.332 76.6805C60.0206 74.7384 64.2808 71.8919 67.8693 68.3034C71.4578 64.7149 74.3043 60.4547 76.2464 55.7661C78.1885 51.0775 79.1881 46.0523 79.1881 40.9774C79.1881 35.9025 78.1885 30.8773 76.2464 26.1887C74.3043 21.5001 71.4578 17.24 67.8693 13.6515C64.2808 10.063 60.0206 7.21641 55.332 5.27433C50.6434 3.33225 45.6182 2.33267 40.5433 2.33267ZM60.6708 56.6326C60.6708 59.0922 58.658 61.1049 56.1985 61.1049H24.8881C22.4286 61.1049 20.4158 59.0922 20.4158 56.6326V25.3223C20.4158 22.8627 22.4286 20.85 24.8881 20.85H56.1985C58.658 20.85 60.6708 22.8627 60.6708 25.3223V56.6326Z" fill="#86E7B8"/>
</g>
<defs>
<filter id="filter0_d" x="0.28833" y="0.722595" width="89.5099" height="89.5099" filterUnits="userSpaceOnUse" color-interpolation-filters="sRGB">
<feFlood flood-opacity="0" result="BackgroundImageFix"/>
<feColorMatrix in="SourceAlpha" type="matrix" values="0 0 0 0 0 0 0 0 0 0 0 0 0 0 0 0 0 0 127 0"/>
<feOffset dx="5" dy="5"/>
<feGaussianBlur stdDeviation="2"/>
<feColorMatrix type="matrix" values="0 0 0 0 0 0 0 0 0 0 0 0 0 0 0 0 0 0 0.25 0"/>
<feBlend mode="normal" in2="BackgroundImageFix" result="effect1_dropShadow"/>
<feBlend mode="normal" in="SourceGraphic" in2="effect1_dropShadow" result="shape"/>
</filter>
</defs>
</svg>
