<svg width="91" height="91" viewBox="0 0 91 91" fill="none" xmlns="http://www.w3.org/2000/svg">
<g filter="url(#filter0_d)">
<path d="M75.3142 19.5124C63.2709 0.894313 38.6825 -4.64079 19.6139 6.9326C1.04718 18.506 -4.97447 43.6655 7.06883 62.2836L8.07244 63.7932L4.05801 78.8889L19.1121 74.8634L20.6175 75.8698C27.141 79.3921 34.1663 81.4048 41.1915 81.4048C48.7186 81.4048 56.2456 79.3921 62.7691 75.3666C81.3359 63.29 86.8557 38.6336 75.3142 19.5124ZM64.7763 58.2581C62.7691 61.2772 60.2601 63.29 56.7475 63.7932C54.7402 63.7932 52.2312 64.7995 42.1951 60.774C33.6645 56.7485 26.6392 50.207 21.6212 42.6592C18.6103 39.1368 17.1049 34.6081 16.6031 30.0794C16.6031 26.0539 18.1085 22.5315 20.6175 20.0156C21.6212 19.0092 22.6248 18.506 23.6284 18.506H26.1374C27.141 18.506 28.1446 18.506 28.6464 20.5188C29.65 23.0347 32.159 29.073 32.159 29.5762C32.6608 30.0794 32.6608 31.0858 32.159 31.589C32.6608 32.5953 32.159 33.6017 31.6572 34.1049C31.1554 34.6081 30.6536 35.6145 30.1518 36.1177C29.1482 36.6209 28.6464 37.6272 29.1482 38.6336C31.1554 41.6528 33.6645 44.6719 36.1735 47.1879C39.1843 49.7038 42.1951 51.7166 45.7078 53.2262C46.7114 53.7294 47.715 53.7294 48.2168 52.723C48.7186 51.7166 51.2276 49.2006 52.2312 48.1943C53.2348 47.1879 53.7366 47.1879 54.7402 47.6911L62.7691 51.7166C63.7727 52.2198 64.7763 52.723 65.2781 53.2262C65.7799 54.7357 65.7799 56.7485 64.7763 58.2581Z" fill="#86E7B8"/>
</g>
<defs>
<filter id="filter0_d" x="0.825317" y="0.894928" width="89.5099" height="89.5099" filterUnits="userSpaceOnUse" color-interpolation-filters="sRGB">
<feFlood flood-opacity="0" result="BackgroundImageFix"/>
<feColorMatrix in="SourceAlpha" type="matrix" values="0 0 0 0 0 0 0 0 0 0 0 0 0 0 0 0 0 0 127 0"/>
<feOffset dx="5" dy="5"/>
<feGaussianBlur stdDeviation="2"/>
<feColorMatrix type="matrix" values="0 0 0 0 0 0 0 0 0 0 0 0 0 0 0 0 0 0 0.25 0"/>
<feBlend mode="normal" in2="BackgroundImageFix" result="effect1_dropShadow"/>
<feBlend mode="normal" in="SourceGraphic" in2="effect1_dropShadow" result="shape"/>
</filter>
</defs>
</svg>
