<svg width="46" height="46" viewBox="0 0 46 46" fill="none" xmlns="http://www.w3.org/2000/svg">
<g filter="url(#filter0_d)">
<path d="M27.0248 22.5183C27.0248 24.0723 27.467 24.692 28.6232 24.692C31.2003 24.692 32.8412 21.4083 32.8412 15.9471C32.8412 7.59989 26.7584 3.60389 19.1642 3.60389C11.3516 3.60389 4.24578 8.84309 4.24578 18.7443C4.24578 28.2015 10.4618 33.3519 20.0078 33.3519C23.249 33.3519 25.4246 32.9967 28.7527 31.8867L29.4668 34.8596C26.1812 35.9271 22.6699 36.236 19.9634 36.236C7.44258 36.236 0.736328 29.354 0.736328 18.7424C0.736328 8.04204 8.50818 0.760437 19.2086 0.760437C30.353 0.760437 36.2563 7.42044 36.2563 15.59C36.2563 22.5164 34.0826 27.8 27.245 27.8C24.1351 27.8 22.0946 26.5568 21.8282 23.8022C21.029 26.8658 18.8978 27.8 16.0099 27.8C12.1471 27.8 8.90593 24.8234 8.90593 18.8312C8.90593 12.7928 11.7494 9.06324 16.8554 9.06324C19.5638 9.06324 21.251 10.1288 22.0021 11.816L23.2915 9.46284H27.0211V22.5183H27.0248V22.5183ZM21.5655 16.6575C21.5655 14.2173 19.7432 13.1943 18.2336 13.1943C16.5908 13.1943 14.7723 14.5244 14.7723 18.4335C14.7723 21.5415 16.1487 23.2731 18.2336 23.2731C19.6988 23.2731 21.5655 22.3407 21.5655 19.7655V16.6575Z" fill="#86E7B8"/>
</g>
<defs>
<filter id="filter0_d" x="0" y="0" width="46" height="46" filterUnits="userSpaceOnUse" color-interpolation-filters="sRGB">
<feFlood flood-opacity="0" result="BackgroundImageFix"/>
<feColorMatrix in="SourceAlpha" type="matrix" values="0 0 0 0 0 0 0 0 0 0 0 0 0 0 0 0 0 0 127 0"/>
<feOffset dx="5" dy="5"/>
<feGaussianBlur stdDeviation="2"/>
<feColorMatrix type="matrix" values="0 0 0 0 0 0 0 0 0 0 0 0 0 0 0 0 0 0 0.3 0"/>
<feBlend mode="normal" in2="BackgroundImageFix" result="effect1_dropShadow"/>
<feBlend mode="normal" in="SourceGraphic" in2="effect1_dropShadow" result="shape"/>
</filter>
</defs>
</svg>
