<svg width="46" height="47" viewBox="0 0 46 47" fill="none" xmlns="http://www.w3.org/2000/svg">
<g filter="url(#filter0_d)">
<path d="M18.5601 0.759979C8.71957 0.759979 0.742432 8.92618 0.742432 19C0.742432 29.0738 8.71957 37.24 18.5601 37.24C28.4007 37.24 36.3779 29.0738 36.3779 19C36.3779 8.92618 28.4007 0.759979 18.5601 0.759979ZM22.7807 13.3646H20.1025C19.7851 13.3646 19.4325 13.7921 19.4325 14.3602V16.34H22.7826L22.2759 19.1634H19.4325V27.6393H16.2717V19.1634H13.4041V16.34H16.2717V14.6794C16.2717 12.2968 17.8864 10.3607 20.1025 10.3607H22.7807V13.3646V13.3646Z" fill="#86E7B8"/>
</g>
<defs>
<filter id="filter0_d" x="0" y="0" width="46.1202" height="47" filterUnits="userSpaceOnUse" color-interpolation-filters="sRGB">
<feFlood flood-opacity="0" result="BackgroundImageFix"/>
<feColorMatrix in="SourceAlpha" type="matrix" values="0 0 0 0 0 0 0 0 0 0 0 0 0 0 0 0 0 0 127 0"/>
<feOffset dx="5" dy="5"/>
<feGaussianBlur stdDeviation="2"/>
<feColorMatrix type="matrix" values="0 0 0 0 0 0 0 0 0 0 0 0 0 0 0 0 0 0 0.25 0"/>
<feBlend mode="normal" in2="BackgroundImageFix" result="effect1_dropShadow"/>
<feBlend mode="normal" in="SourceGraphic" in2="effect1_dropShadow" result="shape"/>
</filter>
</defs>
</svg>
