<svg width="47" height="48" viewBox="0 0 47 48" fill="none" xmlns="http://www.w3.org/2000/svg">
<g filter="url(#filter0_d)">
<path d="M25.0268 20.1845C25.0268 21.7342 24.441 23.2205 23.3983 24.3163C22.3557 25.4121 20.9415 26.0277 19.4669 26.0277C17.9923 26.0277 16.5781 25.4121 15.5354 24.3163C14.4927 23.2205 13.9069 21.7342 13.9069 20.1845C13.9069 19.8514 13.9403 19.5261 13.9977 19.2106H12.0536V26.9958C12.0536 27.5372 12.4706 27.9755 12.9858 27.9755H25.9498C26.1967 27.975 26.4333 27.8715 26.6077 27.6878C26.7822 27.5042 26.8801 27.2553 26.8801 26.9958V19.2106H24.936C24.9935 19.5261 25.0268 19.8514 25.0268 20.1845V20.1845ZM19.4669 24.08C19.9538 24.0798 20.4358 23.9789 20.8856 23.783C21.3354 23.5871 21.744 23.2999 22.0882 22.938C22.4324 22.5761 22.7054 22.1465 22.8916 21.6737C23.0778 21.2009 23.1736 20.6942 23.1735 20.1825C23.1734 19.6708 23.0774 19.1642 22.8909 18.6915C22.7045 18.2188 22.4313 17.7893 22.0869 17.4276C21.7426 17.0659 21.3338 16.779 20.8839 16.5833C20.434 16.3876 19.9519 16.2869 19.465 16.287C18.4817 16.2873 17.5388 16.6981 16.8436 17.429C16.1485 18.1599 15.7581 19.1511 15.7584 20.1845C15.7586 21.2179 16.1495 22.2089 16.845 22.9394C17.5404 23.67 18.4836 24.0802 19.4669 24.08V24.08ZM23.9148 16.0942H26.1369C26.2846 16.0942 26.4262 16.0327 26.5308 15.9232C26.6353 15.8136 26.6943 15.665 26.6948 15.5099V13.1745C26.6948 13.019 26.636 12.8699 26.5314 12.76C26.4268 12.65 26.2849 12.5883 26.1369 12.5883H23.9148C23.7669 12.5883 23.625 12.65 23.5204 12.76C23.4157 12.8699 23.357 13.019 23.357 13.1745V15.5099C23.3588 15.8313 23.609 16.0942 23.9148 16.0942V16.0942ZM19.4669 1.48608C14.7482 1.48608 10.2228 3.45609 6.88615 6.96272C3.54954 10.4693 1.67505 15.2254 1.67505 20.1845C1.67505 25.1436 3.54954 29.8996 6.88615 33.4062C10.2228 36.9129 14.7482 38.8829 19.4669 38.8829C21.8033 38.8829 24.1169 38.3992 26.2755 37.4595C28.4341 36.5199 30.3955 35.1425 32.0476 33.4062C33.6997 31.6699 35.0102 29.6086 35.9044 27.34C36.7985 25.0714 37.2587 22.64 37.2587 20.1845C37.2587 17.729 36.7985 15.2975 35.9044 13.0289C35.0102 10.7603 33.6997 8.69902 32.0476 6.96272C30.3955 5.22641 28.4341 3.8491 26.2755 2.90941C24.1169 1.96973 21.8033 1.48608 19.4669 1.48608V1.48608ZM28.7334 27.7593C28.7334 28.9493 27.8068 29.9232 26.6744 29.9232H12.2593C11.127 29.9232 10.2003 28.9493 10.2003 27.7593V12.6097C10.2003 11.4196 11.127 10.4457 12.2593 10.4457H26.6744C27.8068 10.4457 28.7334 11.4196 28.7334 12.6097V27.7593V27.7593Z" fill="#86E7B8"/>
</g>
<defs>
<filter id="filter0_d" x="0.933716" y="0.707031" width="46.0663" height="47.955" filterUnits="userSpaceOnUse" color-interpolation-filters="sRGB">
<feFlood flood-opacity="0" result="BackgroundImageFix"/>
<feColorMatrix in="SourceAlpha" type="matrix" values="0 0 0 0 0 0 0 0 0 0 0 0 0 0 0 0 0 0 127 0"/>
<feOffset dx="5" dy="5"/>
<feGaussianBlur stdDeviation="2"/>
<feColorMatrix type="matrix" values="0 0 0 0 0 0 0 0 0 0 0 0 0 0 0 0 0 0 0.25 0"/>
<feBlend mode="normal" in2="BackgroundImageFix" result="effect1_dropShadow"/>
<feBlend mode="normal" in="SourceGraphic" in2="effect1_dropShadow" result="shape"/>
</filter>
</defs>
</svg>
